<svg width="71" height="32" viewBox="0 0 71 32" fill="none" xmlns="http://www.w3.org/2000/svg">
<path fill-rule="evenodd" clip-rule="evenodd" d="M45.5399 31.7711C45.679 31.9102 45.8876 31.9855 46.1658 31.9971H46.2005C46.7685 31.9739 47.0524 31.7074 47.0524 31.1974V22.2265C47.0524 22.1454 47.0466 22.0932 47.035 22.07L55.919 30.9192C56.0813 31.0815 56.2377 31.2264 56.3884 31.3539C56.5391 31.4698 56.6724 31.5683 56.7883 31.6494C57.2171 31.9044 57.6633 32.0203 58.127 31.9971C59.031 31.9508 59.483 31.5161 59.483 30.6932V20.2272C59.483 19.7056 59.1991 19.4332 58.6311 19.41C58.0632 19.4216 57.7792 19.694 57.7792 20.2272V30.1543V30.189C57.7792 30.2006 57.785 30.2064 57.7966 30.2064C57.7271 30.2064 57.6575 30.1832 57.588 30.1369C57.5185 30.0905 57.4373 30.021 57.3446 29.9282L47.4175 19.9838C47.0003 19.5897 46.583 19.3985 46.1658 19.41C45.621 19.4564 45.3486 19.7288 45.3486 20.2272V31.1974C45.3486 31.4408 45.4124 31.632 45.5399 31.7711ZM44.269 31.0931C44.269 30.7802 44.1357 30.56 43.8692 30.4325L35.5937 25.6515L42.8434 21.0096C43.0984 20.8357 43.2259 20.6097 43.2259 20.3315C43.2259 20.2388 43.2143 20.1577 43.1911 20.0881C43.168 20.007 43.139 19.9259 43.1042 19.8447C43.0115 19.7056 42.9072 19.6013 42.7913 19.5318C42.687 19.4507 42.5537 19.4101 42.3914 19.4101C42.3103 19.4101 42.2407 19.4217 42.1828 19.4449C42.1248 19.468 42.0611 19.5028 41.9915 19.5492C40.2646 20.6503 38.5782 21.7282 36.9324 22.7829C35.2865 23.8376 33.6002 24.9155 31.8732 26.0166V20.2098C31.8732 19.9664 31.8037 19.7752 31.6646 19.6361C31.5371 19.497 31.3227 19.4217 31.0213 19.4101C30.7316 19.4217 30.5171 19.497 30.378 19.6361C30.2506 19.7752 30.1868 19.9664 30.1868 20.2098V31.1453C30.1868 31.6784 30.465 31.9508 31.0213 31.9624C31.5892 31.9508 31.8732 31.6784 31.8732 31.1453V28.0333C32.2673 27.8015 32.6208 27.5755 32.9337 27.3552C33.2582 27.135 33.6117 26.9032 33.9942 26.6598L43.0347 31.8755L42.9999 31.8581C43.139 31.9508 43.2839 31.9972 43.4345 31.9972C43.5968 31.9972 43.7301 31.9624 43.8344 31.8929C43.9503 31.8117 44.0546 31.7016 44.1473 31.5625C44.2285 31.3771 44.269 31.2206 44.269 31.0931ZM16.9525 26.5729C16.8946 26.5497 16.8656 26.5845 16.8656 26.6772V31.1974C16.8656 31.7074 16.5758 31.974 15.9963 31.9972C15.7066 31.9856 15.4922 31.9102 15.3531 31.7712C15.2256 31.6321 15.1618 31.4408 15.1618 31.1974V20.714C15.1618 19.9143 15.6196 19.4796 16.5353 19.4101C16.8019 19.4217 17.1785 19.4275 17.6653 19.4275H19.4734H21.89C22.8056 19.4275 23.8314 19.4217 24.9672 19.4101C25.6974 19.4217 26.3523 19.5666 26.9318 19.8447C27.5229 20.1113 27.9749 20.5112 28.2879 21.0443C28.5776 21.5427 28.7457 22.0875 28.792 22.6786C28.7689 23.061 28.7109 23.4145 28.6182 23.7391C28.537 24.052 28.4327 24.3418 28.3052 24.6083C27.6794 25.918 26.5667 26.5729 24.9672 26.5729H24.8629L28.879 30.5889C28.9601 30.6817 29.0122 30.7744 29.0354 30.8671C29.0702 30.9482 29.0876 31.0352 29.0876 31.1279C29.0876 31.3365 29.0065 31.5336 28.8442 31.719C28.6819 31.8929 28.4849 31.9798 28.2531 31.9798C28.0445 31.9798 27.859 31.8986 27.6967 31.7364L22.5333 26.5729H16.9525ZM24.9672 24.8517C26.3233 24.8517 27.0419 24.1389 27.123 22.7133C27.0303 21.6007 26.3117 21.0443 24.9672 21.0443H17.0221C16.9873 21.0675 16.9525 21.0965 16.9178 21.1313C16.883 21.1544 16.8656 21.195 16.8656 21.2529V24.7822C16.854 24.8286 16.8946 24.8517 16.9873 24.8517H24.9672ZM14.0822 31.093C14.0822 30.78 13.9489 30.5598 13.6824 30.4323L5.40688 25.6513L12.6566 21.0094C12.9116 20.8356 13.0391 20.6095 13.0391 20.3314C13.0391 20.2387 13.0275 20.1575 13.0043 20.088C12.9811 20.0068 12.9522 19.9257 12.9174 19.8446C12.8247 19.7055 12.7204 19.6012 12.6045 19.5316C12.5001 19.4505 12.3669 19.4099 12.2046 19.4099C12.1235 19.4099 12.0539 19.4215 11.996 19.4447C11.938 19.4679 11.8743 19.5027 11.8047 19.549C10.0778 20.6501 8.39139 21.728 6.74556 22.7827C5.09974 23.8374 3.41335 24.9153 1.68639 26.0164V20.2097C1.68639 19.9663 1.61685 19.775 1.47776 19.636C1.35027 19.4969 1.13585 19.4215 0.834502 19.4099C0.544745 19.4215 0.330324 19.4969 0.19124 19.636C0.0637467 19.775 0 19.9663 0 20.2097V31.1451C0 31.6783 0.278167 31.9507 0.834502 31.9623C1.40243 31.9507 1.68639 31.6783 1.68639 31.1451V28.0331C2.08046 27.8013 2.43397 27.5753 2.7469 27.3551C3.07143 27.1349 3.42494 26.9031 3.80742 26.6597L12.8479 31.8753L12.8131 31.8579C12.9522 31.9507 13.0971 31.997 13.2477 31.997C13.41 31.997 13.5433 31.9623 13.6476 31.8927C13.7635 31.8116 13.8678 31.7015 13.9605 31.5624C14.0417 31.3769 14.0822 31.2205 14.0822 31.093Z" fill="black"/>
<path d="M54.3027 12.4819C54.522 12.088 54.7498 11.6984 54.9595 11.3003C55.083 11.0662 55.2437 11.0459 55.4651 11.1449C56.0197 11.394 56.5796 11.6335 57.2023 11.6346C57.3098 11.6346 57.4183 11.5941 57.5258 11.5718C57.479 11.4547 57.4524 11.3227 57.3821 11.2216C57.0554 10.7522 56.6743 10.3157 56.3901 9.82291C55.6854 8.59881 55.497 7.25442 55.6599 5.87172C55.7972 4.70191 56.2666 3.64918 56.966 2.69757C57.776 1.59695 58.85 0.850777 60.1103 0.374974C61.0129 0.0343547 61.9645 -0.038027 62.9257 0.0162593C64.4904 0.104607 65.838 0.698563 67.0004 1.74065C67.9956 2.63264 68.6779 3.72475 69.0186 5.00953C69.241 5.84618 69.3049 6.69772 69.1835 7.57908C69.0409 8.61265 68.6705 9.53658 68.1298 10.4041C67.9445 10.7011 67.6869 10.9523 67.4762 11.2354C67.4038 11.3333 67.3729 11.4611 67.3229 11.576C67.4294 11.5995 67.5358 11.6442 67.6422 11.6442C68.283 11.6452 68.8663 11.4142 69.4379 11.163C69.6572 11.0662 69.7839 11.1013 69.8925 11.3057C70.0415 11.5867 70.2043 11.8602 70.3523 12.1423C70.578 12.5734 70.5247 12.7118 70.1202 12.9566C69.3954 13.3962 68.6119 13.6857 67.7668 13.6272C66.3979 13.5325 65.2643 12.946 64.4553 11.8038C64.3734 11.6889 64.2914 11.5728 64.2254 11.4483C64.0743 11.1662 64.119 11.0459 64.4064 10.9065C65.4889 10.3796 66.3011 9.59406 66.7471 8.45937C66.9355 7.97824 67.0238 7.48541 67.0536 6.96383C67.1175 5.86321 66.8546 4.87009 66.1967 3.99619C65.5985 3.20105 64.8183 2.65606 63.8571 2.35057C63.1727 2.13342 62.4797 2.09617 61.7868 2.17387C60.8852 2.27499 60.0826 2.6518 59.3907 3.25002C58.6371 3.90039 58.1273 4.71255 57.9154 5.67799C57.8005 6.20489 57.7536 6.74349 57.8367 7.30765C57.9995 8.40721 58.4381 9.33965 59.2587 10.072C59.6164 10.3913 60.0379 10.6457 60.4552 10.8873C60.8054 11.0896 60.8426 11.1396 60.6404 11.4856C60.1114 12.3903 59.3545 13.0482 58.3721 13.3824C57.7398 13.5974 57.082 13.7326 56.3763 13.5825C55.6993 13.4388 55.0713 13.2355 54.5188 12.8193C54.4369 12.7576 54.3741 12.6681 54.3027 12.5915C54.3027 12.5564 54.3027 12.5202 54.3027 12.4851V12.4819Z" fill="url(#paint0_linear_127_45358)"/>
<path d="M67.0164 16.8535C67.0164 17.093 67.0121 17.3325 67.0185 17.5709C67.0227 17.7434 66.9472 17.8211 66.779 17.8019C66.4213 17.7593 66.0584 17.7381 65.7071 17.6625C64.9013 17.4879 64.1488 17.1697 63.442 16.746C63.1929 16.597 62.947 16.4363 62.7203 16.2553C62.5095 16.0871 62.3296 16.0999 62.1317 16.2617C61.5941 16.7002 60.9959 17.0451 60.3487 17.2857C59.8751 17.4613 59.3758 17.5741 58.8841 17.6955C58.6382 17.7562 58.3817 17.7743 58.1294 17.8094C57.9261 17.8381 57.8239 17.7402 57.8271 17.5422C57.8345 17.0547 57.8473 16.5682 57.8622 16.0807C57.8697 15.854 58.0613 15.8231 58.2188 15.7976C59.345 15.6166 60.3317 15.1281 61.1939 14.4021C61.5824 14.0753 61.9028 13.6666 62.2445 13.2866C62.4095 13.1035 62.4904 13.095 62.6341 13.2919C63.3951 14.334 64.3957 15.0663 65.5868 15.5368C65.9179 15.6677 66.2808 15.7263 66.6332 15.7933C66.9482 15.854 67.0174 15.9147 67.0185 16.2425C67.0185 16.4469 67.0185 16.6502 67.0185 16.8546H67.0164V16.8535Z" fill="url(#paint1_linear_127_45358)"/>
<defs>
<linearGradient id="paint0_linear_127_45358" x1="56.1054" y1="3.46389" x2="67.1684" y2="16.4239" gradientUnits="userSpaceOnUse">
<stop stop-color="#DB7C0C"/>
<stop offset="1" stop-color="#FDC80E"/>
</linearGradient>
<linearGradient id="paint1_linear_127_45358" x1="56.1054" y1="3.46389" x2="67.1684" y2="16.4239" gradientUnits="userSpaceOnUse">
<stop stop-color="#DB7C0C"/>
<stop offset="1" stop-color="#FDC80E"/>
</linearGradient>
</defs>
</svg>
