<svg width="146" height="37" viewBox="0 0 146 37" fill="none" xmlns="http://www.w3.org/2000/svg">
<path fill-rule="evenodd" clip-rule="evenodd" d="M132.151 12.2769C130.483 8.60905 130.08 4.15325 130.08 2.35791H132.438C132.438 3.96828 132.821 8.05294 134.297 11.3013C135.213 13.3155 136.159 14.2829 136.939 14.7655C137.71 15.2426 138.444 15.3258 139.118 15.3258C139.322 15.3258 139.556 15.273 139.784 15.1755C140.016 15.0759 140.178 14.957 140.25 14.8852L141.917 16.5524C141.318 17.1515 140.237 17.6836 139.118 17.6836C138.221 17.6836 136.99 17.5703 135.698 16.7703C134.414 15.9757 133.2 14.5853 132.151 12.2769Z" fill="url(#paint0_linear_201_4071)"/>
<path fill-rule="evenodd" clip-rule="evenodd" d="M124.191 2.3578C124.237 4.215 124.603 6.93819 125.424 9.43641C126.329 12.1909 127.664 14.2988 129.366 15.028C130.658 15.5818 131.953 15.2237 133.137 14.1916C134.342 13.141 135.268 11.5026 135.61 9.96139C136.032 8.06468 136.801 6.41395 137.986 5.34734C139.234 4.2247 140.842 3.84468 142.601 4.37235C144.679 4.99572 145.647 6.55144 145.916 8.14393C146.171 9.65862 145.816 11.2469 145.282 12.3162L145.265 12.3487C144.88 13.1197 144.438 14.0034 143.718 14.8902C142.977 15.8016 142.963 16.0479 141.476 16.8976L139.512 15.3257C140.775 14.6035 141.351 14.0639 141.888 13.4034C142.434 12.7308 142.776 12.0551 143.173 11.2618C143.517 10.5737 143.752 9.4898 143.591 8.53588C143.443 7.65977 142.989 6.95046 141.924 6.63071C140.932 6.33315 140.183 6.54258 139.563 7.09987C138.882 7.71319 138.276 8.83287 137.912 10.4729C137.468 12.4684 136.298 14.5631 134.687 15.9686C133.054 17.3925 130.813 18.2133 128.437 17.1952C125.737 16.0382 124.125 13.0375 123.184 10.1726C122.218 7.23403 121.828 4.04365 121.828 1.96483C121.828 1.64519 121.914 1.19197 122.207 0.784788C122.544 0.31749 123.094 0 123.793 0H130.08C130.466 0 131.017 0.105843 131.506 0.457962C132.055 0.853361 132.438 1.50201 132.438 2.3578H130.113C130.12 2.3646 130.125 2.36901 130.128 2.3714C130.132 2.37426 130.133 2.37348 130.128 2.3714C130.124 2.36927 130.116 2.36682 130.107 2.36402C130.097 2.3612 130.087 2.35935 130.08 2.35834C130.078 2.35807 130.076 2.3578 130.076 2.3578H124.191Z" fill="url(#paint1_linear_201_4071)"/>
<path d="M91.3698 36.4791C90.9869 36.4791 90.7781 36.0614 90.9869 35.7829L103.553 18.8314C104.214 17.9264 105.537 17.4043 106.65 17.4043C107.764 17.4043 109.122 17.9264 109.783 18.8314L122.314 35.7829C122.558 36.0614 122.349 36.4791 121.966 36.4791H119.634C118.868 36.4791 118.137 36.131 117.685 35.5044L106.894 20.9547C106.79 20.7807 106.546 20.7807 106.407 20.9547L95.6512 35.5044C95.1639 36.131 94.4677 36.4791 93.7019 36.4791H91.3698Z" fill="white"/>
<path d="M85.7077 34.7038C85.9165 34.8779 86.0906 35.0867 86.1254 35.3652C86.195 35.9917 85.7425 36.5139 85.1507 36.5139H83.5148C82.7142 36.5139 81.9484 36.2354 81.3219 35.7481L73.3508 29.6219C72.7243 29.1346 71.9237 28.8561 71.1231 28.8561H58.1746C58.0005 28.8561 57.8613 28.9953 57.8613 29.1694V34.669C57.8613 35.6785 57.0607 36.4791 56.0513 36.4791H54.9374C54.5894 36.4791 54.3457 36.2354 54.3457 35.8873V27.1505C54.3457 26.1759 55.1463 25.3405 56.1557 25.3405H80.6953C81.7744 25.3405 82.6446 24.4703 82.6098 23.3913C82.5749 22.347 81.6699 21.2332 80.6257 21.2332H56.1557C55.1463 21.2332 54.3457 20.3978 54.3457 19.3884V17.996C54.3457 17.6828 54.5894 17.4043 54.9374 17.4043H80.4169C83.654 17.4043 86.2646 20.3978 86.1254 23.6349C86.0209 26.7328 83.3755 28.8561 80.2776 28.8561H78.6417C78.4676 28.8561 78.398 29.065 78.5372 29.1694L85.7077 34.7038Z" fill="white"/>
<path d="M42.3408 19.2143C42.3408 18.2049 43.1414 17.4043 44.1508 17.4043H45.2647C45.578 17.4043 45.8564 17.6828 45.8564 17.996V34.669C45.8564 35.6785 45.0558 36.4791 44.0464 36.4791H42.9326C42.5845 36.4791 42.3408 36.2354 42.3408 35.8873V19.2143Z" fill="white"/>
<path d="M27.8812 17.8916C28.3337 17.5783 28.8558 17.4043 29.3779 17.4043C30.0393 17.4043 31.2227 17.4043 31.7797 17.4043C32.1277 17.4043 32.4062 17.6828 32.4062 18.0308V35.8873C32.4062 36.2354 32.1277 36.5139 31.7797 36.5139H30.7006C29.6912 36.5139 28.8558 35.6785 28.8558 34.669V21.6161L19.6665 28.7517C18.7615 29.4478 17.3344 29.8307 16.1857 29.8307C15.037 29.8307 13.6099 29.4478 12.7049 28.7517L3.5156 21.6161V34.669C3.5156 35.6785 2.71502 36.5139 1.70559 36.5139H0.591736C0.243655 36.5139 0 36.2354 0 35.8873V18.0308C0 17.6828 0.243655 17.4043 0.591736 17.4043H2.57579C3.41118 17.4043 4.17695 17.6828 4.8035 18.1701C6.05658 19.1447 9.15449 21.3028 15.3503 26.1063C16.0117 26.6284 16.6382 26.6284 17.3344 26.1063C20.119 23.9134 25.201 19.9801 27.8812 17.8916Z" fill="white"/>
<rect x="54.3389" y="19.3379" width="3.86755" height="8.70199" fill="white"/>
<defs>
<linearGradient id="paint0_linear_201_4071" x1="131.259" y1="3.14384" x2="139.232" y2="15.4703" gradientUnits="userSpaceOnUse">
<stop stop-color="#3D6FF0"/>
<stop offset="0.5" stop-color="#153EA7"/>
<stop offset="1" stop-color="#67A5F2"/>
</linearGradient>
<linearGradient id="paint1_linear_201_4071" x1="130.866" y1="3.92966" x2="141.166" y2="16.9205" gradientUnits="userSpaceOnUse">
<stop stop-color="#3D6FF0"/>
<stop offset="1" stop-color="#6AA9F2"/>
</linearGradient>
</defs>
</svg>
